<?xml version="1.0" standalone="no"?>
<!DOCTYPE svg PUBLIC "-//W3C//DTD SVG 1.1//EN"
  "http://www.w3.org/Graphics/SVG/1.1/DTD/svg11.dtd">
<svg width="160" height="80" xmlns="http://www.w3.org/2000/svg" version="1.1" viewBox="0 0 160 80"   preserveAspectRatio="xMinYMin meet"
style="width:100%; height:100%">

  <title>Example arcs01 - arc commands in path data</title>
  <desc>Picture of a pie chart with two pie wedges and
        a picture of a line with arc blips</desc>


  <script type="text/ecmascript"> <![CDATA[
    function circle_click(evt) {
      console.log("woo")
      var circle = evt.target;
      var currentRadius = circle.getAttribute("r");
      if (currentRadius == 100)
        circle.setAttribute("r", currentRadius*2);
      else
        circle.setAttribute("r", currentRadius*0.5);
    }
  ]]> </script>

  <style type="text/css">
    .skater { r:1.5 }
    .a { fill:#900 }
    .b { fill:#009 }

  </style>

  <g transform="translate(80,40) ">

    <circle cx="17.5" cy="0" r="0.5" />
    <circle cx="-17.5" cy="0" r="0.5"/>

    <path id="track" onmouseover="circle_click(evt)" fill="#ffc" stroke="#ccc" stroke-width="0.5"
      d="
      M17.5,26.5
      A26.5,26.5 0 0 0 17.5,-26.5
      L-17.5,-26.5
      A26.5,26.5 0 0 0 -17.5,26.5
      L17.5,26.5

      M-17.5,11.5
      A1,1 0 0 1 -17.5,-13.5
      L17.5,-11.5
      A1,1 0 0 1 17.5,13.5
      L-17.5,11.5

      M17.5,13.5
      L17.5,26.5

      M-12.5,11.5
      L-12.5,26.5
      z
      "  />


      <circle class="skater a" id="a-jammer"   cx="-14" cy="16" r=".75" />
      <circle class="skater a" id="a-pivot"    cx="5" cy="16" r=".75" />
      <circle class="skater a" id="a-blocker1" cx="5" cy="18" r=".75" />
      <circle class="skater a" id="a-blocker2" cx="5" cy="20" r=".75" />
      <circle class="skater a" id="a-blocker3" cx="5" cy="22" r=".75" />

      <circle class="skater b" id="b-jammer"   cx="-14"   cy="20"   r=".75" />
      <circle class="skater b" id="b-pivot"    cx="7" cy="16" r=".75" />
      <circle class="skater b" id="b-blocker1" cx="7" cy="18" r=".75" />
      <circle class="skater b" id="b-blocker2" cx="7" cy="20" r=".75" />
      <circle class="skater b" id="b-blocker3" cx="7" cy="22" r=".75" />




  </g>



</svg>